<svg xmlns="http://www.w3.org/2000/svg" xmlns:xlink="http://www.w3.org/1999/xlink" viewBox="0 0 255.12 487.45"><defs><style>.cls-1,.cls-4{fill:none;}.cls-2{fill:#ffe500;}.cls-3{clip-path:url(#clip-path);}.cls-4{stroke:#ffe500;stroke-miterlimit:10;stroke-width:6px;}.cls-5{font-size:96px;fill:#231815;font-family:AvenirLTStd-Medium, Avenir LT Std;}.cls-6{font-family:AvenirLTStd-Heavy, Avenir LT Std;}</style><clipPath id="clip-path"><polygon class="cls-1" points="0 340.16 255.12 487.45 255.12 147.29 0 340.16"/></clipPath></defs><title>Cover</title><g id="图层_2" data-name="图层 2"><polygon class="cls-2" points="0 0 0 340.16 255.12 147.29 0 0"/><path class="cls-2" d="M249.12,159.35V477.06L10.84,339.49,249.12,159.35m6-12.06L0,340.16,255.12,487.45V147.29Z"/><g class="cls-3"><line class="cls-4" x1="373.12" y1="98.85" x2="13.77" y2="370.82"/><line class="cls-4" x1="388.04" y1="118.57" x2="28.69" y2="390.53"/><line class="cls-4" x1="402.96" y1="138.29" x2="43.61" y2="410.25"/><line class="cls-4" x1="417.89" y1="158" x2="58.53" y2="429.97"/><line class="cls-4" x1="432.81" y1="177.72" x2="73.45" y2="449.68"/><line class="cls-4" x1="447.73" y1="197.44" x2="88.38" y2="469.4"/><line class="cls-4" x1="462.65" y1="217.15" x2="103.3" y2="489.12"/><line class="cls-4" x1="477.58" y1="236.87" x2="118.22" y2="508.84"/><line class="cls-4" x1="492.5" y1="256.59" x2="133.14" y2="528.55"/></g><text class="cls-5" transform="translate(-649.58 371.84)">FOLIO<tspan class="cls-6" x="291.35" y="-5">&gt;&gt;&gt;</tspan></text></g></svg>